<svg id="QR_SCAN" xmlns="http://www.w3.org/2000/svg" viewBox="0 0 48 48"><title>QR_Scan</title><path d="M1,1V24H24V1ZM22.16,22.16H2.84V2.84H22.16Z" transform="translate(-1 -1)"/><rect x="5" y="5" width="13" height="13"/><path d="M1,26V49H24V26ZM22.16,47.16H2.84V27.84H22.16Z" transform="translate(-1 -1)"/><rect x="5" y="30" width="13" height="13"/><path d="M26,1V24H49V1ZM47.16,22.16H27.84V2.84H47.16Z" transform="translate(-1 -1)"/><rect x="30" y="5" width="13" height="13"/><rect x="25" y="25" width="2.5" height="2.5"/><rect x="27.93" y="25" width="2.5" height="2.5"/><rect x="33.79" y="25" width="2.5" height="2.5"/><rect x="36.71" y="25" width="2.5" height="2.5"/><rect x="39.64" y="25" width="2.5" height="2.5"/><rect x="45.5" y="25" width="2.5" height="2.5"/><rect x="25" y="45.5" width="2.5" height="2.5"/><rect x="27.93" y="45.5" width="2.5" height="2.5"/><rect x="33.79" y="45.5" width="2.5" height="2.5"/><rect x="36.71" y="45.5" width="2.5" height="2.5"/><rect x="39.64" y="45.5" width="2.5" height="2.5"/><rect x="42.57" y="45.5" width="2.5" height="2.5"/><rect x="25" y="39.64" width="2.5" height="2.5"/><rect x="27.93" y="39.64" width="2.5" height="2.5"/><rect x="30.86" y="39.64" width="2.5" height="2.5"/><rect x="33.79" y="39.64" width="2.5" height="2.5"/><rect x="36.71" y="39.64" width="2.5" height="2.5"/><rect x="42.57" y="39.64" width="2.5" height="2.5"/><rect x="45.5" y="39.64" width="2.5" height="2.5"/><rect x="27.93" y="36.71" width="2.5" height="2.5"/><rect x="30.86" y="36.71" width="2.5" height="2.5"/><rect x="33.79" y="36.71" width="2.5" height="2.5"/><rect x="36.71" y="36.71" width="2.5" height="2.5"/><rect x="39.64" y="36.71" width="2.5" height="2.5"/><rect x="42.57" y="36.71" width="2.5" height="2.5"/><rect x="25" y="33.79" width="2.5" height="2.5"/><rect x="27.93" y="33.79" width="2.5" height="2.5"/><rect x="36.71" y="33.79" width="2.5" height="2.5"/><rect x="42.57" y="33.79" width="2.5" height="2.5"/><rect x="45.5" y="33.79" width="2.5" height="2.5"/><rect x="25" y="30.86" width="2.5" height="2.5"/><rect x="27.93" y="30.86" width="2.5" height="2.5"/><rect x="30.86" y="30.86" width="2.5" height="2.5"/><rect x="36.71" y="30.86" width="2.5" height="2.5"/><rect x="39.64" y="30.86" width="2.5" height="2.5"/><rect x="42.57" y="30.86" width="2.5" height="2.5"/><rect x="45.5" y="30.86" width="2.5" height="2.5"/><rect x="25" y="27.93" width="2.5" height="2.5"/><rect x="30.86" y="27.93" width="2.5" height="2.5"/><rect x="33.79" y="27.93" width="2.5" height="2.5"/><rect x="36.71" y="27.93" width="2.5" height="2.5"/><rect x="39.64" y="27.93" width="2.5" height="2.5"/><rect x="42.57" y="27.93" width="2.5" height="2.5"/><rect x="25" y="42.57" width="2.5" height="2.5"/><rect x="30.86" y="42.57" width="2.5" height="2.5"/><rect x="33.79" y="42.57" width="2.5" height="2.5"/><rect x="36.71" y="42.57" width="2.5" height="2.5"/><rect x="39.64" y="42.57" width="2.5" height="2.5"/><rect x="42.57" y="42.57" width="2.5" height="2.5"/><rect x="45.5" y="42.57" width="2.5" height="2.5"/></svg>