<svg id="46513ef0-17ba-4159-b4de-97942b0dbcb6" data-name="8cf0b9ee-27a2-455b-a9d9-1be3145ff931" xmlns="http://www.w3.org/2000/svg" viewBox="0 0 162.29 163.2"><title>uognd_letters</title><path d="M143.53,0h0a18.22,18.22,0,0,1,18,18c.47,24.13,1.33,53.49.22,73.73-1.41,25.88-14.76,45.58-36.29,59.35a81,81,0,0,1-32,11.54c-.87.13-1.73.38-2.6.58H72.1c-8.7-1.55-17.33-3.33-25.38-7.24C18.89,142.45,2.89,120.37.89,88.71-.42,67.34,0,38.71.32,18.35A18.41,18.41,0,0,1,18.58,0h0A18.94,18.94,0,0,1,37.32,19.18h0c0,23.42-.16,54.59.15,65.45.39,13.35,6.29,24.06,17.21,31.56C65,123.25,76.41,125,88.6,123.57c21.7-2.57,36.84-17.44,37-39.65,0-8.8,0-43.77,0-65.72A18,18,0,0,1,143.35,0ZM125.59,27h0" fill="#999"/></svg>