<svg id="664d0009-ddf2-4847-b8bd-c5b191c289bf" data-name="8cf0b9ee-27a2-455b-a9d9-1be3145ff931" xmlns="http://www.w3.org/2000/svg" viewBox="0 0 166.63 162.06"><title>uognd_letters</title><path d="M70.14,161.93c-25.4-1.41-44.73-14.76-58.24-36.28C5.53,115.5,2,104.28.39,92.43a2.91,2.91,0,0,0-.22-.83A1.62,1.62,0,0,1,0,90.88V72.3H0C1.52,63.6,3.27,55,7.1,46.93,20.38,19.09,42,3.07,73.1,1.12,94-.19,127.65.25,147.9.54A18.49,18.49,0,0,1,166.14,19v2.58a16,16,0,0,1-16,16c-23,0-61.9-.18-73,.15-13.1.38-23.61,6.28-31,17.2C39.21,65.25,37.48,76.7,38.9,88.89c2.52,21.7,17.11,36.84,38.9,37,6.33,0,47.72.1,48.76.1h0V110.48h0l-17.42-.58A15.58,15.58,0,0,1,93.62,94.37V92.51A15.57,15.57,0,0,1,109.14,77L148,77.2c9.66,0,18.56,7.9,18.56,17.56l.08,50.36A16.81,16.81,0,0,1,150,162C125.47,162.22,81.45,162.56,70.14,161.93Z" fill="#999"/></svg>