<svg id="8cf0b9ee-27a2-455b-a9d9-1be3145ff931" data-name="Layer 1" xmlns="http://www.w3.org/2000/svg" viewBox="0 0 658.79 164.04"><title>uognd_logo_teal</title><path d="M725.93,269.9c-1.5,8.62-3.24,17.18-7,25.15-13.16,27.58-34.6,43.46-65.41,45.39-22.32,1.4-44.7.32-67.05.47a47.76,47.76,0,0,1-9.19-1.16,12.34,12.34,0,0,1-6.62-3.59C559.49,324.6,548.4,313,537.22,301.5q-25.77-26.56-51.65-53l0,0a1.94,1.94,0,0,0-3.33,1.43v.08q0,36.21,0,72.4a22.3,22.3,0,0,1-2,9.66c-3.32,7.13-9.74,8.36-16.61,8.79-9.48.6-16-3.22-18.76-11a16.1,16.1,0,0,1-.76-5.55q0-63.6,0-127.19c0-9.86,6.3-15.82,16.18-16.43,8.53-.52,14.95,2.37,20.86,8.56,20.31,21.3,41,42.23,61.58,63.31q9.84,10.09,19.63,20.27h0a2,2,0,0,0,3.39-1.37v-.1q.06-35.7,0-71.4a31.27,31.27,0,0,1,.49-5.94c1.58-8,7.06-13.12,15.16-13.16,25-.13,50.1-1.1,75,.29,25.16,1.41,44.32,14.63,57.71,36,6.09,9.7,9.54,20.4,11.22,31.7.13.86.38,1.71.57,2.57Zm-121.59-9.64c0,13.5,0,27,0,40.5,0,2.46.67,3.61,3.38,3.59,13.94-.1,27.89.25,41.82-.16,13-.39,23.39-6.23,30.69-17.05,6.86-10.19,8.58-21.54,7.17-33.62-2.5-21.5-18.91-36.5-40.5-36.62-12.72-.06-25.45,0-38.17,0-4.33,0-4.35,0-4.36,4.53Z" transform="translate(-67.14 -177.63)" style="fill:#099"/><path d="M210.64,177.63h0a18.22,18.22,0,0,1,18,18c.47,24.13,1.33,53.49.22,73.73-1.41,25.88-14.76,45.58-36.29,59.35a81,81,0,0,1-32,11.54c-.87.13-1.73.38-2.6.58H139.21c-8.7-1.55-17.33-3.33-25.38-7.24C86,320.08,70,298,68,266.34c-1.31-21.37-.87-50-.57-70.36a18.4,18.4,0,0,1,18.26-18.31h0a18.94,18.94,0,0,1,18.74,19.14c0,23.42-.16,54.59.15,65.45.39,13.35,6.29,24.06,17.21,31.56,10.28,7.06,21.73,8.82,33.92,7.38,21.7-2.57,36.84-17.44,36.95-39.65.05-8.8,0-43.77,0-65.72A18,18,0,0,1,210.64,177.63ZM192.7,220.29m0-15.64h0" transform="translate(-67.14 -177.63)" style="fill:#999"/><path d="M353.83,248a80.53,80.53,0,0,0-11.67-32c-13.93-21.53-33.86-34.87-60-36.28l-13.29-.34c-32,2-54.36,18-68,45.81-3.95,8-5.75,16.68-7.31,25.38v18.77c.2.86.45,1.72.58,2.59a80.4,80.4,0,0,0,11.68,32c13.92,21.53,33.85,34.87,60,36.28,0,0,13.58.39,13.3.34,32.05-1.95,54.35-18,68-45.81,3.95-8,5.75-16.68,7.32-25.38V250.55C354.22,249.69,354,248.83,353.83,248Zm-47,38.76c-7.59,10.91-18.42,16.82-31.92,17.2l-1.26.1c-22.46-.12-37.5-15.26-40.1-37-1.46-12.19.32-23.64,7.47-33.92,7.58-10.91,18.53-16.71,32-17.09l1.26-.09c22.45.11,37.38,15.14,40,36.84C315.77,265,314,276.44,306.85,286.72Z" transform="translate(-67.14 -177.63)" style="fill:#999"/><path d="M443.75,340.77m-9.43-36.23" transform="translate(-67.14 -177.63)" style="fill:#999"/><path d="M386,341.31c-25.4-1.41-44.73-14.76-58.24-36.28-6.37-10.15-9.88-21.37-11.51-33.22a3,3,0,0,0-.22-.83,1.62,1.62,0,0,1-.17-.72V251.68h0c1.52-8.7,3.27-17.33,7.1-25.37,13.28-27.84,34.92-43.86,66-45.81,20.89-1.31,54.55-.87,74.8-.58A18.49,18.49,0,0,1,482,198.42V201a16,16,0,0,1-16,16c-23,0-61.9-.18-73,.15-13.1.38-23.61,6.28-31,17.2-6.93,10.28-8.66,21.73-7.24,33.92,2.52,21.7,17.11,36.84,38.9,36.95,6.33,0,47.72.1,48.76.1,0,0,0,0,0,0V289.86s0,0,0,0L425,289.28a15.57,15.57,0,0,1-15.52-15.53v-1.86A15.57,15.57,0,0,1,425,256.37l38.85.21c9.66,0,18.56,7.9,18.56,17.56l.08,50.36a16.81,16.81,0,0,1-16.65,16.85C441.33,341.6,397.31,341.94,386,341.31Z" transform="translate(-67.14 -177.63)" style="fill:#999"/></svg>