<svg id="3098b420-0e40-4573-a848-610872b839f8" data-name="8cf0b9ee-27a2-455b-a9d9-1be3145ff931" xmlns="http://www.w3.org/2000/svg" viewBox="0 0 281.83 160.76"><title>uognd_letters</title><path d="M281.83,90.29c-1.5,8.62-3.24,17.18-7,25.15-13.16,27.58-34.6,43.46-65.41,45.39-22.32,1.4-44.7.32-67,.47a48.25,48.25,0,0,1-9.19-1.16,12.37,12.37,0,0,1-6.62-3.59C115.39,145,104.3,133.39,93.12,121.89q-25.77-26.56-51.65-53h0a1.94,1.94,0,0,0-3.33,1.43V142.8a22.33,22.33,0,0,1-2,9.66c-3.32,7.13-9.74,8.36-16.61,8.79-9.48.6-16-3.22-18.76-11A16.31,16.31,0,0,1,0,144.7V17.51C0,7.65,6.31,1.69,16.19,1.08c8.53-.52,15,2.37,20.86,8.56,20.31,21.3,41,42.23,61.58,63.31q9.84,10.1,19.63,20.27h0a2,2,0,0,0,2.83,0,2,2,0,0,0,.56-1.33v-.1q.06-35.7,0-71.4a32,32,0,0,1,.49-5.94c1.58-8,7.06-13.12,15.16-13.16,25-.13,50.1-1.1,75,.29C237.46,3,256.62,16.17,270,37.54c6.09,9.7,9.54,20.4,11.22,31.7.13.86.38,1.71.57,2.57ZM160.24,80.65v40.5c0,2.46.67,3.61,3.38,3.59,13.94-.1,27.89.25,41.82-.16,13-.39,23.39-6.23,30.69-17C243,97.34,244.71,86,243.3,73.91c-2.5-21.5-18.91-36.5-40.5-36.62-12.72-.06-25.45,0-38.17,0-4.33,0-4.35,0-4.36,4.53Z" fill="#099"/></svg>