<svg id="5bd2d39c-5339-49ce-8d87-ecec5fc593fe" data-name="8cf0b9ee-27a2-455b-a9d9-1be3145ff931" xmlns="http://www.w3.org/2000/svg" viewBox="0 0 160.88 161.17"><title>uognd_letters</title><path d="M160.27,70.37a80.4,80.4,0,0,0-11.67-32C134.67,16.84,114.74,3.5,88.6,2.09L75.31,1.75c-32,2-54.36,18-68,45.81C3.36,55.56,1.56,64.24,0,72.94V91.71c.2.86.45,1.72.58,2.59a80.41,80.41,0,0,0,11.68,32c13.92,21.53,33.85,34.87,60,36.28,0,0,13.58.39,13.3.34,32.05-1.95,54.35-18,68-45.81,3.95-8,5.75-16.68,7.32-25.38V72.92C160.66,72.06,160.44,71.2,160.27,70.37Zm-47,38.76C105.68,120,94.85,126,81.35,126.33l-1.26.1c-22.46-.12-37.5-15.26-40.1-37-1.46-12.19.32-23.64,7.47-33.92C55,44.6,66,38.8,79.46,38.42l1.26-.09c22.45.11,37.38,15.14,40,36.84,1.49,12.2-.28,23.64-7.43,33.92Z" fill="#999"/></svg>