<svg id="92aea39a-ccc6-46eb-84ac-7c18724f9fd4" data-name="Layer 2" xmlns="http://www.w3.org/2000/svg" viewBox="0 0 120 76"><title>layout_imgs</title><rect width="120" height="76" fill="#b2b2b2"/><rect x="3" y="2" width="36" height="72" fill="#7c7c7c"/><path d="M20.59,32.51h0l-2.26,1.22L18,32.39l2.84-1.52h1.5v13h-1.7Z"/><rect x="42" y="2" width="36" height="72" fill="#7c7c7c"/><path d="M55.77,43.87V42.79l1.38-1.34c3.32-3.16,4.82-4.84,4.84-6.8a2.32,2.32,0,0,0-2.58-2.54,4.43,4.43,0,0,0-2.76,1.1L56.09,32a5.7,5.7,0,0,1,3.68-1.32,3.66,3.66,0,0,1,4,3.78c0,2.4-1.74,4.34-4.48,7l-1,1v0h5.84v1.46Z"/><rect x="81" y="2" width="36" height="72" fill="#7c7c7c"/><path d="M95.19,41.85a5.88,5.88,0,0,0,2.88.82c2.26,0,3-1.44,2.94-2.52,0-1.82-1.66-2.6-3.36-2.6h-1V36.23h1c1.28,0,2.9-.66,2.9-2.2,0-1-.66-2-2.28-2a4.77,4.77,0,0,0-2.6.86l-.46-1.28a6.18,6.18,0,0,1,3.4-1c2.56,0,3.72,1.52,3.72,3.1a3.23,3.23,0,0,1-2.4,3.06v0a3.39,3.39,0,0,1,2.9,3.34c0,2.08-1.62,3.9-4.74,3.9a6.61,6.61,0,0,1-3.38-.88Z"/></svg>