<svg id="47cef959-7cf7-41d2-85c8-601e9a72efca" data-name="Layer 2" xmlns="http://www.w3.org/2000/svg" viewBox="0 0 120 76"><title>layout_imgs</title><rect width="120" height="76" fill="#b2b2b2"/><rect x="2" y="2.75" width="116" height="34" fill="#7c7c7c"/><rect x="2" y="39.25" width="116" height="34" fill="#7c7c7c"/><path d="M59.59,14.26h0l-2.26,1.22L57,14.14l2.84-1.52h1.5v13h-1.7Z"/><path d="M55.77,62.12V61l1.38-1.34C60.47,56.54,62,54.86,62,52.9a2.32,2.32,0,0,0-2.58-2.54,4.43,4.43,0,0,0-2.76,1.1l-.56-1.24a5.7,5.7,0,0,1,3.68-1.32,3.66,3.66,0,0,1,4,3.78c0,2.4-1.74,4.34-4.48,7l-1,1v0h5.84v1.46Z"/></svg>