<svg id="9b997dca-f0b9-43e2-9181-49abeaeaeea5" data-name="Layer 2" xmlns="http://www.w3.org/2000/svg" viewBox="0 0 120 76"><title>layout_imgs</title><rect width="120" height="76" fill="#b2b2b2"/><rect x="2.3" y="2" width="56.2" height="72" fill="#7c7c7c"/><rect x="61.5" y="2" width="56.2" height="72" fill="#7c7c7c"/><path d="M30,32.51h0l-2.26,1.22-.34-1.34,2.84-1.52h1.5v13H30Z"/><path d="M85.37,43.87V42.79l1.38-1.34c3.32-3.16,4.82-4.84,4.84-6.8A2.32,2.32,0,0,0,89,32.11a4.43,4.43,0,0,0-2.76,1.1L85.69,32a5.7,5.7,0,0,1,3.68-1.32,3.66,3.66,0,0,1,4,3.78c0,2.4-1.74,4.34-4.48,7l-1,1v0h5.84v1.46Z"/></svg>